<svg width="30" height="30" viewBox="0 0 30 30" fill="none" xmlns="http://www.w3.org/2000/svg">
<path d="M5 26.9V3.1C5 2.76863 5.26863 2.5 5.6 2.5H20.3765C20.5356 2.5 20.6882 2.56321 20.8007 2.67574L24.8243 6.69926C24.9368 6.81179 25 6.9644 25 7.12353V26.9C25 27.2314 24.7314 27.5 24.4 27.5H5.6C5.26863 27.5 5 27.2314 5 26.9Z" stroke="#D24EF6" stroke-width="2" stroke-linecap="round" stroke-linejoin="round"/>
<path d="M10 12.5L20 12.5" stroke="#D24EF6" stroke-width="2" stroke-linecap="round" stroke-linejoin="round"/>
<path d="M10 22.5L20 22.5" stroke="#D24EF6" stroke-width="2" stroke-linecap="round" stroke-linejoin="round"/>
<path d="M10 17.5L15 17.5" stroke="#D24EF6" stroke-width="2" stroke-linecap="round" stroke-linejoin="round"/>
<path d="M20 2.5V6.9C20 7.23137 20.2686 7.5 20.6 7.5H25" stroke="#D24EF6" stroke-width="2" stroke-linecap="round" stroke-linejoin="round"/>
</svg>
